<svg id="Слой_1" data-name="Слой 1" xmlns="http://www.w3.org/2000/svg" viewBox="0 0 99 99"><title>seat-2</title><path d="M91.19,10.18Zm0,0"/><path d="M11.74,69.19A12.14,12.14,0,0,1,21.67,66L60,71.21,61.52,56a88.58,88.58,0,0,1,5.61-24.48L68.48,28a11.17,11.17,0,0,1,5.59-6.1,11.53,11.53,0,0,1-.41-8.09l0-.08a14.27,14.27,0,0,1,13-9.31,4.48,4.48,0,0,1,3.62,1.73,4.83,4.83,0,0,1,.93,4L78.46,67.79a1.27,1.27,0,0,1-1.52,1,1.32,1.32,0,0,1-1-1.57l8.7-40.56a2.73,2.73,0,0,0-.52-2.27,2.54,2.54,0,0,0-2-1l-3.65.08a8.16,8.16,0,0,0-2.19.35l-.1,0A8.51,8.51,0,0,0,70.84,29l-1.35,3.51a85.83,85.83,0,0,0-5.44,23.74v0l-1.52,15.3,2.42.33a7,7,0,0,1,7.31-2.83,7.44,7.44,0,0,1,5.43,8.86v0L74.56,91.36a3.48,3.48,0,0,1-3.37,2.75H22.29a6.73,6.73,0,0,1-6.6-6.76h-3c-3.25,0-5.9-2.95-5.9-6.57a15.63,15.63,0,0,1,4.92-11.6ZM76.5,21.07a10.62,10.62,0,0,1,1.92-.22l3.65-.08a5,5,0,0,1,3.67,1.5l3-12.67a2.14,2.14,0,0,0-.41-1.77,2,2,0,0,0-1.6-.77,11.73,11.73,0,0,0-10.63,7.61,8.81,8.81,0,0,0,.44,6.4Zm-5.31,70.4a.92.92,0,0,0,.89-.73L75.2,77.33a4.79,4.79,0,0,0-3.5-5.7,4.62,4.62,0,0,0-5.51,3.64l-3.63,16.2ZM12.72,84.72H27.07a1.32,1.32,0,0,1,0,2.64H18.23a4.14,4.14,0,0,0,4.06,4.12H59.94l.92-4.12H33a1.32,1.32,0,0,1,0-2.64H61.46l2.25-10c0-.1,0-.2.07-.3L21.33,68.61a9.69,9.69,0,0,0-7.91,2.57,13,13,0,0,0-4.06,9.61,3.68,3.68,0,0,0,3.35,3.93Zm0,0"/></svg>