<svg id="Слой_1" data-name="Слой 1" xmlns="http://www.w3.org/2000/svg" viewBox="0 0 99 99"><defs><style>.cls-1{fill:#00e8f2;}</style></defs><title>seat-1</title><path d="M49,5.4C23.83,5.4,3.37,25.47,3.37,50.15S23.83,94.9,49,94.9,94.56,74.82,94.56,50.15,74.11,5.4,49,5.4Zm0,84.69c-22.44,0-40.69-17.92-40.69-39.94S26.53,10.21,49,10.21,89.65,28.12,89.65,50.15,71.4,90.09,49,90.09Zm0,0"/><path class="cls-1" d="M49,14.7c-19.91,0-36.11,15.9-36.11,35.45S29.05,85.59,49,85.59s36.11-15.9,36.11-35.45S68.88,14.7,49,14.7Zm0,68c-18.29,0-33.17-14.61-33.17-32.56S30.67,17.59,49,17.59,82.14,32.19,82.14,50.15,67.26,82.71,49,82.71Zm0,0"/><path d="M69.91,31.83Zm0,0"/><path d="M30.47,59.44a6.27,6.27,0,0,1,4.93-1.5l19,2.44.75-7.12A39.43,39.43,0,0,1,58,41.81l.67-1.64a5.36,5.36,0,0,1,2.77-2.86,5.11,5.11,0,0,1-.2-3.78v0a7.07,7.07,0,0,1,6.43-4.35,2.28,2.28,0,0,1,1.8.81,2.16,2.16,0,0,1,.46,1.88L63.59,58.78a.63.63,0,0,1-.75.47.62.62,0,0,1-.48-.74l4.32-19a1.22,1.22,0,0,0-.26-1.06,1.29,1.29,0,0,0-1-.46l-1.81,0a4.28,4.28,0,0,0-1.09.16l-.05,0a4.13,4.13,0,0,0-2.65,2.39l-.67,1.64a38.2,38.2,0,0,0-2.7,11.1h0l-.75,7.16,1.2.15a3.6,3.6,0,0,1,3.63-1.32,3.48,3.48,0,0,1,2.69,4.14h0l-1.55,6.28A1.71,1.71,0,0,1,60,71.09H35.71a3.25,3.25,0,0,1-3.28-3.16H31A3,3,0,0,1,28,64.86a7.11,7.11,0,0,1,2.44-5.42ZM62.62,36.93a5.58,5.58,0,0,1,1-.1l1.81,0a2.56,2.56,0,0,1,1.82.7l1.48-5.93a1,1,0,0,0-.2-.83,1,1,0,0,0-.8-.36,5.81,5.81,0,0,0-5.28,3.56,3.9,3.9,0,0,0,.22,3ZM60,69.86a.45.45,0,0,0,.44-.34L62,63.24a2.24,2.24,0,0,0-1.74-2.67,2.29,2.29,0,0,0-2.73,1.7l-1.8,7.58ZM31,66.7h7.12a.62.62,0,1,1,0,1.23H33.69a2,2,0,0,0,2,1.93H54.4l.46-1.93H41a.62.62,0,1,1,0-1.23H55.15L56.27,62l0-.14-21.07-2.7a5,5,0,0,0-3.93,1.2,5.89,5.89,0,0,0-2,4.5A1.76,1.76,0,0,0,31,66.7Zm0,0"/></svg>