<svg id="Слой_1" data-name="Слой 1" xmlns="http://www.w3.org/2000/svg" viewBox="0 0 227.33 269.67"><defs><style>.cls-1{fill:none;stroke:#fff;stroke-miterlimit:22.93;stroke-width:2px;fill-rule:evenodd;}.cls-2{fill:#fcfcfc;}.cls-3{fill:#fbfbfb;}.cls-4{fill:#fcee21;}</style></defs><title>him-1</title><path class="cls-1" d="M26.79,214.92s-.32-26.39.38-29.13,6.2-4.84,7.22-6,1.18-6,1.88-7.65,9.35-15.25,9.35-15.25-.1,2.59,8.32,10.12A194.36,194.36,0,0,0,73.7,182c-5.1-4-25.63-20-26.31-26.18a13.12,13.12,0,0,1,.51-4c-4,5.78-11.57,17.52-12.49,19.76s-1.17,6.76-2.12,7.59-6.5,3.35-7.26,6,.76,29.67.76,29.67"/><path class="cls-1" d="M200.55,214.92s.32-26.39-.38-29.13-6.2-4.84-7.22-6-1.18-6-1.88-7.65-9.35-15.25-9.35-15.25.1,2.59-8.32,10.12a194.37,194.37,0,0,1-19.76,15c5.1-4,25.63-20,26.31-26.18a13.12,13.12,0,0,0-.51-4c4,5.78,11.57,17.52,12.49,19.76s1.17,6.76,2.12,7.59,6.49,3.35,7.26,6-.76,29.67-.76,29.67"/><path class="cls-1" d="M36.52,196.4c2.36,4.91,2.17,5.55,5.23,6.5,3.27,1,33.73,3.87,34.22-.77.08-.77-1.11-3.58-3.82-7.17-1.08-1.43-17.24-4.62-24.42-5.51a73.35,73.35,0,0,0-11.5-.76C33.82,188.93,36,195.36,36.52,196.4Z"/><path class="cls-1" d="M190.81,196.4c-2.36,4.91-2.17,5.55-5.23,6.5-3.26,1-33.73,3.87-34.23-.77-.08-.77,1.11-3.58,3.82-7.17,1.08-1.43,17.24-4.62,24.42-5.51a73.35,73.35,0,0,1,11.5-.76C193.51,188.93,191.31,195.36,190.81,196.4Z"/><path class="cls-1" d="M83.06,197.09c-.45,1.48,3.22,10.42,6.93,11,0,0-3.83-4.35-4.95-6.9s-1.32-3.45-.91-4.27c1.16-2.31,17.82-2.2,20.1-1.7s3.08.5,4,1.57,1.41,3.62,1.44,3.3-.13-3.43-1.16-4.38c-3.17-2.92-19.9-1.37-23-.66C84.08,195.4,83.53,195.54,83.06,197.09Z"/><path class="cls-1" d="M144.28,197.09c.45,1.48-3.22,10.42-6.93,11,0,0,3.83-4.35,4.94-6.9s1.32-3.45.91-4.27c-1.16-2.31-17.82-2.2-20.1-1.7s-3.08.5-4,1.57-1.41,3.62-1.44,3.3.13-3.43,1.16-4.38c3.17-2.92,19.9-1.37,23-.66C143.26,195.4,143.81,195.54,144.28,197.09Z"/><path class="cls-1" d="M60.61,154.07c20.36,1.34,85.58,1.39,106.11,0a27.08,27.08,0,0,0,5-.55c1.28-.36,1.68-.87,1.67-1.87-1.57,3-117.85,3-119.42,0,0,1,.38,1.51,1.67,1.87A27,27,0,0,0,60.61,154.07Z"/><rect class="cls-2" x="31.67" y="234.96" width="164" height="10"/><path class="cls-1" d="M66.6,122.23c-6.58,4.42-14.33,21.27-18,28.69-2.42-.85-16.23-1.28-21.1,1.39-1,.54-1.65,1.35-1.55,3.55-4.25-7.81,21.93-7.2,22.31-7.81,3.06-5,10.55-23.77,18.81-28.2,10.21-5.48,83-5.48,93.17,0,8.26,4.43,15.76,23.25,18.81,28.2.38.62,26.55,0,22.31,7.81.1-2.2-.57-3-1.55-3.55-4.87-2.67-18.68-2.25-21.1-1.39-3.65-7.42-11.4-24.27-18-28.69C153.82,117.59,73.52,117.59,66.6,122.23Z"/><path class="cls-3" d="M114.3,18C89.16,18,68.71,38,68.71,62.72s20.45,44.75,45.59,44.75,45.59-20.07,45.59-44.75S139.44,18,114.3,18Zm0,84.69c-22.44,0-40.69-17.92-40.69-39.94S91.86,22.78,114.3,22.78,155,40.7,155,62.72s-18.25,39.94-40.69,39.94Zm0,0"/><path class="cls-3" d="M114.3,27.27c-19.91,0-36.11,15.9-36.11,35.45s16.2,35.45,36.11,35.45,36.11-15.9,36.11-35.45-16.2-35.45-36.11-35.45Zm0,68C96,95.28,81.13,80.68,81.13,62.72S96,30.16,114.3,30.16s33.18,14.61,33.18,32.56S132.59,95.28,114.3,95.28Zm0,0"/><path class="cls-4" d="M125.38,43.88,117.68,57a6.62,6.62,0,0,1,3.39,5.75h15.4a21.68,21.68,0,0,0-11.09-18.84Zm0,0"/><path class="cls-4" d="M114.3,69.37a6.82,6.82,0,0,1-3.38-.9l-7.7,13.09a22.5,22.5,0,0,0,22.17,0l-7.7-13.09a6.82,6.82,0,0,1-3.38.9Zm0,0"/><path class="cls-4" d="M110.92,57l-7.7-13.1A21.68,21.68,0,0,0,92.13,62.72h15.4A6.62,6.62,0,0,1,110.92,57Zm0,0"/><path class="cls-3" d="M114.3,67A4.24,4.24,0,1,0,110,62.72,4.28,4.28,0,0,0,114.3,67Zm0,0"/></svg>