<svg id="Слой_1" data-name="Слой 1" xmlns="http://www.w3.org/2000/svg" viewBox="0 0 227.33 269.67"><defs><style>.cls-1{fill:none;stroke:#fff;stroke-miterlimit:22.93;stroke-width:2px;fill-rule:evenodd;}.cls-2{fill:#fcfcfc;}.cls-3{fill:#fbfbfb;}.cls-4{fill:#136ef1;}.cls-5{fill:#1689fc;}.cls-6{fill:#17ace8;}.cls-7{fill:#cae8f9;}.cls-8{fill:#b7e0f6;}</style></defs><title>pol-1</title><path class="cls-1" d="M26.79,215.78s-.32-26.39.38-29.13,6.2-4.84,7.22-6,1.18-6,1.88-7.65,9.35-15.25,9.35-15.25-.1,2.59,8.32,10.12a194.36,194.36,0,0,0,19.76,15c-5.1-4-25.63-20-26.31-26.18a13.12,13.12,0,0,1,.51-4c-4,5.78-11.57,17.52-12.49,19.76s-1.17,6.76-2.12,7.59-6.5,3.35-7.26,6,.76,29.67.76,29.67"/><path class="cls-1" d="M200.55,215.78s.32-26.39-.38-29.13-6.2-4.84-7.22-6-1.18-6-1.88-7.65-9.35-15.25-9.35-15.25.1,2.59-8.32,10.12a194.37,194.37,0,0,1-19.76,15c5.1-4,25.63-20,26.31-26.18a13.12,13.12,0,0,0-.51-4c4,5.78,11.57,17.52,12.49,19.76s1.17,6.76,2.12,7.59,6.49,3.35,7.26,6-.76,29.67-.76,29.67"/><path class="cls-1" d="M36.52,197.26c2.36,4.91,2.17,5.55,5.23,6.5,3.27,1,33.73,3.87,34.22-.77.08-.77-1.11-3.58-3.82-7.17-1.08-1.43-17.24-4.62-24.42-5.51a73.35,73.35,0,0,0-11.5-.76C33.82,189.79,36,196.21,36.52,197.26Z"/><path class="cls-1" d="M190.81,197.26c-2.36,4.91-2.17,5.55-5.23,6.5-3.26,1-33.73,3.87-34.23-.77-.08-.77,1.11-3.58,3.82-7.17,1.08-1.43,17.24-4.62,24.42-5.51a73.35,73.35,0,0,1,11.5-.76C193.51,189.79,191.31,196.21,190.81,197.26Z"/><path class="cls-1" d="M83.06,197.95c-.45,1.48,3.22,10.42,6.93,11,0,0-3.83-4.35-4.95-6.9s-1.32-3.45-.91-4.27c1.16-2.31,17.82-2.2,20.1-1.7s3.08.5,4,1.57,1.41,3.62,1.44,3.3-.13-3.43-1.16-4.38c-3.17-2.92-19.9-1.37-23-.66C84.08,196.26,83.53,196.4,83.06,197.95Z"/><path class="cls-1" d="M144.28,197.95c.45,1.48-3.22,10.42-6.93,11,0,0,3.83-4.35,4.94-6.9s1.32-3.45.91-4.27c-1.16-2.31-17.82-2.2-20.1-1.7s-3.08.5-4,1.57-1.41,3.62-1.44,3.3.13-3.43,1.16-4.38c3.17-2.92,19.9-1.37,23-.66C143.26,196.26,143.81,196.4,144.28,197.95Z"/><path class="cls-1" d="M60.61,154.93c20.36,1.34,85.58,1.39,106.11,0a27.08,27.08,0,0,0,5-.55c1.28-.36,1.68-.87,1.67-1.87-1.57,3-117.85,3-119.42,0,0,1,.38,1.51,1.67,1.87A27,27,0,0,0,60.61,154.93Z"/><rect class="cls-2" x="31.67" y="235.82" width="164" height="10"/><path class="cls-1" d="M66.6,123.09c-6.58,4.42-14.33,21.27-18,28.69-2.42-.85-16.23-1.28-21.1,1.39-1,.54-1.65,1.35-1.55,3.55-4.25-7.81,21.93-7.2,22.31-7.81,3.06-5,10.55-23.77,18.81-28.2,10.21-5.48,83-5.48,93.17,0,8.26,4.43,15.76,23.25,18.81,28.2.38.62,26.55,0,22.31,7.81.1-2.2-.57-3-1.55-3.55-4.87-2.67-18.68-2.25-21.1-1.39-3.65-7.42-11.4-24.27-18-28.69C153.82,118.45,73.52,118.45,66.6,123.09Z"/><path class="cls-3" d="M114.3,18.83c-25.14,0-45.59,20.08-45.59,44.75s20.45,44.75,45.59,44.75,45.59-20.07,45.59-44.75S139.44,18.83,114.3,18.83Zm0,84.69c-22.44,0-40.69-17.92-40.69-39.94S91.86,23.64,114.3,23.64,155,41.56,155,63.58s-18.25,39.94-40.69,39.94Zm0,0"/><path class="cls-3" d="M114.3,28.13c-19.91,0-36.11,15.9-36.11,35.45S94.39,99,114.3,99s36.11-15.9,36.11-35.45-16.2-35.45-36.11-35.45Zm0,68C96,96.14,81.13,81.53,81.13,63.58S96,31,114.3,31s33.18,14.61,33.18,32.56S132.59,96.14,114.3,96.14Zm0,0"/><polygon class="cls-4" points="124.6 62.21 121.92 65.05 114.07 83.7 114.2 86.89 136.49 62.21 134.91 60.84 126.74 60.84 124.6 62.21"/><polygon class="cls-4" points="91.92 62.21 114.2 86.89 114.49 84.07 106.32 64.66 103.8 62.21 101.85 60.84 93.96 60.84 91.92 62.21"/><polygon class="cls-5" points="130.54 51.28 128.17 52.92 124.06 60.47 124.6 62.21 136.49 62.21 130.54 51.28"/><polygon class="cls-5" points="97.86 51.28 100.46 53.33 104.66 61.06 103.8 62.21 91.92 62.21 97.86 51.28"/><polygon class="cls-6" points="124.6 62.21 114.2 86.89 103.8 62.21 106.42 60.84 121.81 60.84 124.6 62.21"/><polygon class="cls-5" points="124.6 62.21 114.2 86.89 114.2 60.84 121.81 60.84 124.6 62.21"/><path class="cls-7" d="M115.69,41.63v2.82a1.49,1.49,0,0,1-3,0V41.63a1.49,1.49,0,0,1,3,0Z"/><path class="cls-7" d="M106.85,48.62a1.55,1.55,0,0,1-1.05-.4l-2.1-1.93a1.29,1.29,0,0,1,0-1.93,1.58,1.58,0,0,1,2.1,0l2.1,1.93a1.29,1.29,0,0,1,0,1.93A1.55,1.55,0,0,1,106.85,48.62Z"/><path class="cls-8" d="M121.56,48.62a1.55,1.55,0,0,1-1.05-.4,1.29,1.29,0,0,1,0-1.93l2.1-1.93a1.58,1.58,0,0,1,2.1,0,1.29,1.29,0,0,1,0,1.93l-2.1,1.93A1.55,1.55,0,0,1,121.56,48.62Z"/><polygon class="cls-6" points="114.2 51.28 114.44 53.09 122.12 61.16 124.6 62.21 130.54 51.28 114.2 51.28"/><polygon class="cls-6" points="114.2 51.28 114.43 52.61 106.67 60.76 103.8 62.21 97.86 51.28 114.2 51.28"/><path class="cls-8" d="M115.69,41.63v2.82a1.42,1.42,0,0,1-1.49,1.37V40.26A1.42,1.42,0,0,1,115.69,41.63Z"/><polygon class="cls-7" points="124.6 62.21 103.8 62.21 114.2 51.28 124.6 62.21"/><polygon class="cls-8" points="124.6 62.21 114.2 62.21 114.2 51.28 124.6 62.21"/></svg>