<svg id="Слой_1" data-name="Слой 1" xmlns="http://www.w3.org/2000/svg" viewBox="0 0 227.33 204.67"><defs><style>.cls-1{fill:none;stroke:#fff;stroke-miterlimit:22.93;stroke-width:2px;fill-rule:evenodd;}.cls-2{fill:#fcfcfc;}.cls-3{fill:#fafcfc;}</style></defs><title>pol</title><path class="cls-1" d="M26.79,165.17s-.32-26.39.38-29.13,6.2-4.84,7.22-6,1.18-6,1.88-7.65,9.35-15.25,9.35-15.25-.1,2.59,8.32,10.12a194.36,194.36,0,0,0,19.76,15c-5.1-4-25.63-20-26.31-26.18a13.12,13.12,0,0,1,.51-4c-4,5.78-11.57,17.52-12.49,19.76s-1.17,6.76-2.12,7.59-6.5,3.35-7.26,6,.76,29.67.76,29.67"/><path class="cls-1" d="M200.55,165.17s.32-26.39-.38-29.13-6.2-4.84-7.22-6-1.18-6-1.88-7.65-9.35-15.25-9.35-15.25.1,2.59-8.32,10.12a194.37,194.37,0,0,1-19.76,15c5.1-4,25.63-20,26.31-26.18a13.12,13.12,0,0,0-.51-4c4,5.78,11.57,17.52,12.49,19.76s1.17,6.76,2.12,7.59,6.49,3.35,7.26,6-.76,29.67-.76,29.67"/><path class="cls-1" d="M36.52,146.65c2.36,4.91,2.17,5.55,5.23,6.5,3.27,1,33.73,3.87,34.22-.77.08-.77-1.11-3.58-3.82-7.17-1.08-1.43-17.24-4.62-24.42-5.51a73.35,73.35,0,0,0-11.5-.76C33.82,139.18,36,145.6,36.52,146.65Z"/><path class="cls-1" d="M190.81,146.65c-2.36,4.91-2.17,5.55-5.23,6.5-3.26,1-33.73,3.87-34.23-.77-.08-.77,1.11-3.58,3.82-7.17,1.08-1.43,17.24-4.62,24.42-5.51a73.35,73.35,0,0,1,11.5-.76C193.51,139.18,191.31,145.6,190.81,146.65Z"/><path class="cls-1" d="M83.06,147.34c-.45,1.48,3.22,10.42,6.93,11,0,0-3.83-4.35-4.95-6.9s-1.32-3.45-.91-4.27c1.16-2.31,17.82-2.2,20.1-1.7s3.08.5,4,1.57,1.41,3.62,1.44,3.3-.13-3.43-1.16-4.38c-3.17-2.92-19.9-1.37-23-.66C84.08,145.65,83.53,145.79,83.06,147.34Z"/><path class="cls-1" d="M144.28,147.34c.45,1.48-3.22,10.42-6.93,11,0,0,3.83-4.35,4.94-6.9s1.32-3.45.91-4.27c-1.16-2.31-17.82-2.2-20.1-1.7s-3.08.5-4,1.57-1.41,3.62-1.44,3.3.13-3.43,1.16-4.38c3.17-2.92,19.9-1.37,23-.66C143.26,145.65,143.81,145.79,144.28,147.34Z"/><path class="cls-1" d="M60.61,104.32c20.36,1.34,85.58,1.39,106.11,0a27.08,27.08,0,0,0,5-.55c1.28-.36,1.68-.87,1.67-1.87-1.57,3-117.85,3-119.42,0,0,1,.38,1.51,1.67,1.87A27,27,0,0,0,60.61,104.32Z"/><rect class="cls-2" x="31.67" y="185.21" width="164" height="10"/><path class="cls-1" d="M66.6,72.48c-6.58,4.42-14.33,21.27-18,28.69-2.42-.85-16.23-1.28-21.1,1.39-1,.54-1.65,1.35-1.55,3.55-4.25-7.81,21.93-7.2,22.31-7.81,3.06-5,10.55-23.77,18.81-28.2,10.21-5.48,83-5.48,93.17,0,8.26,4.43,15.76,23.25,18.81,28.2.38.62,26.55,0,22.31,7.81.1-2.2-.57-3-1.55-3.55-4.87-2.67-18.68-2.25-21.1-1.39-3.65-7.42-11.4-24.27-18-28.69C153.82,67.84,73.52,67.84,66.6,72.48Z"/><polyline class="cls-3" points="41.81 11.66 52.15 24.83 68.19 19.97 55.01 30.32 59.87 46.35 49.52 33.18 33.49 38.03 46.67 27.69 41.81 11.66"/><polyline class="cls-3" points="91.94 9.46 95.52 25.82 112.07 28.42 95.7 32 93.1 48.55"/><polyline class="cls-3" points="93.1 48.55 89.52 32.19 72.97 29.58 89.33 26 91.94 9.46"/><polyline class="cls-3" points="142.07 11.1 138.27 27.42 152.1 36.88 135.78 33.08 126.31 46.9 130.12 30.59 116.3 21.13 132.61 24.93 142.07 11.1"/><polyline class="cls-3" points="183.6 11.04 179.94 27.38 193.84 36.73 177.5 33.07 168.15 46.97 171.81 30.62 157.91 21.28 174.25 24.94 183.6 11.04"/></svg>