<svg id="Слой_1" data-name="Слой 1" xmlns="http://www.w3.org/2000/svg" viewBox="0 0 227.33 269.67"><defs><style>.cls-1{fill:none;stroke:#fff;stroke-miterlimit:22.93;stroke-width:2px;fill-rule:evenodd;}.cls-2{fill:#fcfcfc;}.cls-3{fill:#fbfbfb;}.cls-4{fill:#00a5ff;}.cls-5{fill:#006ef4;}.cls-6{fill:#55fbfe;}.cls-7{fill:#00e8f2;}</style></defs><title>vash-1</title><path class="cls-1" d="M30.12,215.78s-.32-26.39.38-29.13,6.2-4.84,7.22-6,1.18-6,1.88-7.65S49,157.73,49,157.73s-.1,2.59,8.32,10.12a194.36,194.36,0,0,0,19.76,15c-5.1-4-25.63-20-26.31-26.18a13.12,13.12,0,0,1,.51-4c-4,5.78-11.57,17.52-12.49,19.76s-1.17,6.76-2.12,7.59-6.5,3.35-7.26,6,.76,29.67.76,29.67"/><path class="cls-1" d="M203.88,215.78s.32-26.39-.38-29.13-6.2-4.84-7.22-6-1.18-6-1.88-7.65S185,157.73,185,157.73s.1,2.59-8.32,10.12a194.37,194.37,0,0,1-19.76,15c5.1-4,25.63-20,26.31-26.18a13.12,13.12,0,0,0-.51-4c4,5.78,11.57,17.52,12.49,19.76s1.17,6.76,2.12,7.59,6.49,3.35,7.26,6-.76,29.67-.76,29.67"/><path class="cls-1" d="M39.86,197.26c2.36,4.91,2.17,5.55,5.23,6.5,3.27,1,33.73,3.87,34.23-.77.08-.77-1.11-3.58-3.82-7.17-1.08-1.43-17.24-4.62-24.42-5.51a73.35,73.35,0,0,0-11.5-.76C37.15,189.79,39.35,196.21,39.86,197.26Z"/><path class="cls-1" d="M194.14,197.26c-2.36,4.91-2.17,5.55-5.23,6.5-3.26,1-33.73,3.87-34.23-.77-.08-.77,1.11-3.58,3.82-7.17,1.08-1.43,17.24-4.62,24.42-5.51a73.35,73.35,0,0,1,11.5-.76C196.84,189.79,194.64,196.21,194.14,197.26Z"/><path class="cls-1" d="M86.39,197.95c-.45,1.48,3.22,10.42,6.93,11,0,0-3.83-4.35-4.95-6.9s-1.32-3.45-.91-4.27c1.16-2.31,17.82-2.2,20.1-1.7s3.08.5,4,1.57S113,201.3,113,201s-.13-3.43-1.16-4.38c-3.17-2.92-19.9-1.37-23-.66C87.41,196.26,86.86,196.4,86.39,197.95Z"/><path class="cls-1" d="M147.61,197.95c.45,1.48-3.22,10.42-6.93,11,0,0,3.83-4.35,4.94-6.9s1.32-3.45.91-4.27c-1.16-2.31-17.82-2.2-20.1-1.7s-3.08.5-4,1.57S121,201.3,121,201s.13-3.43,1.16-4.38c3.17-2.92,19.9-1.37,23-.66C146.59,196.26,147.14,196.4,147.61,197.95Z"/><path class="cls-1" d="M63.94,154.93c20.36,1.34,85.58,1.39,106.11,0a27.08,27.08,0,0,0,5-.55c1.28-.36,1.68-.87,1.67-1.87-1.57,3-117.85,3-119.42,0,0,1,.39,1.51,1.67,1.87A27,27,0,0,0,63.94,154.93Z"/><rect class="cls-2" x="35" y="235.82" width="164" height="10"/><path class="cls-1" d="M69.93,123.09c-6.58,4.42-14.33,21.27-18,28.69-2.42-.85-16.23-1.28-21.1,1.39-1,.54-1.65,1.35-1.55,3.55-4.25-7.81,21.93-7.2,22.31-7.81,3.06-5,10.55-23.77,18.81-28.2,10.21-5.48,83-5.48,93.17,0,8.26,4.43,15.76,23.25,18.81,28.2.38.62,26.55,0,22.31,7.81.1-2.2-.57-3-1.55-3.55-4.87-2.67-18.68-2.25-21.1-1.39-3.65-7.42-11.4-24.27-18-28.69C157.15,118.45,76.85,118.45,69.93,123.09Z"/><path class="cls-3" d="M117.63,18.83C92.49,18.83,72,38.9,72,63.58s20.45,44.75,45.59,44.75,45.59-20.07,45.59-44.75-20.45-44.75-45.59-44.75Zm0,84.69c-22.44,0-40.69-17.92-40.69-39.94s18.25-39.94,40.69-39.94,40.69,17.92,40.69,39.94-18.25,39.94-40.69,39.94Zm0,0"/><path class="cls-3" d="M117.63,28.13c-19.91,0-36.11,15.9-36.11,35.45S97.72,99,117.63,99s36.11-15.9,36.11-35.45-16.2-35.45-36.11-35.45Zm0,68c-18.29,0-33.17-14.61-33.17-32.56S99.34,31,117.63,31s33.18,14.61,33.18,32.56-14.88,32.56-33.18,32.56Zm0,0"/><path class="cls-4" d="M130.65,66.94c0,9.52-7.19,17.26-16,17.26s-16-7.74-16-17.26c0-3.93,2.57-9.75,7.63-17.29,3.69-5.5,7.44-10,7.48-10l.92-1.1.93,1.1s3.78,4.52,7.48,10c5.06,7.54,7.63,13.35,7.63,17.29Zm0,0"/><path class="cls-5" d="M130.65,66.94c0,9.52-7.19,17.26-16,17.26V38.54l.93,1.1s3.78,4.52,7.48,10c5.06,7.54,7.63,13.35,7.63,17.29Zm0,0"/><path class="cls-5" d="M110.43,76.82a8.91,8.91,0,0,1-5.17-5,10.82,10.82,0,0,1-.88-3.43l2.49-.16-1.24.08,1.24-.09c0,.19.34,4.58,4.36,6Zm0,0"/><path class="cls-6" d="M139.09,61.28c0,7.63-5.77,13.85-12.86,13.85s-12.86-6.21-12.86-13.85c0-3.15,2-7.78,6-13.75,2.91-4.33,5.77-7.75,5.89-7.9l.92-1.1.92,1.1c.12.14,3,3.56,5.89,7.9,4,6,6,10.6,6,13.75Zm0,0"/><path class="cls-7" d="M123.95,68.71c-4.52-1.65-4.85-6.56-4.86-6.76l2.49-.16h0a5.2,5.2,0,0,0,3.17,4.39Zm0,0"/><path class="cls-7" d="M139.09,61.28c0,7.63-5.77,13.85-12.86,13.85V38.54l.92,1.1c.12.14,3,3.56,5.89,7.9,4,6,6,10.6,6,13.75Zm0,0"/></svg>